<svg xmlns="http://www.w3.org/2000/svg" viewBox="0 0 600 354.483"><path d="M171.433.004l.005-.004H.02v171.429L171.429.009v171.42h171.428V0L257.15 85.714 171.433.004zM600 0H428.586l-85.714 85.714h85.714v85.715L600 0z" fill="#00b8de"/><path d="M9.53 201.836H.024v43.234H9.53v-43.234zm7.968 43.234h8.901v-30.336h.121l10.596 30.336h7.328l10.599-30.637h.12v30.637h8.902v-43.234H50.681l-9.567 29.734h-.121l-10.112-29.734H17.497v43.234zm63.683 0h9.506v-35.242h12.96v-7.993H68.221v7.993h12.96v35.242zm73.02.001v-7.993h-21.075v-35.242h-9.507l.001.001v43.234h30.58zm12.594-43.236h-8.598v7.086h8.598v-7.086zm0 11.928h-8.598v31.307h8.598v-31.307zm15.311-11.927h-8.598v43.234h8.598v-43.234zm15.311 0h-8.598v43.234h8.598v-43.234zm21.138 44.08c7.086 0 12.234-3.146 14.655-10.535h-7.57c-.544 1.937-3.328 4.06-6.782 4.06-4.782 0-7.448-2.482-7.69-7.934h22.587c.606-9.627-4.54-18.589-15.2-18.589-9.506 0-15.986 7.143-15.986 16.528 0 9.691 6.117 16.47 15.986 16.47zm-.243-26.52c4.179 0 6.055 2.3 6.845 6.66l-.002.001h-13.99c.122-2.42 1.699-6.661 7.147-6.661zm76.535 3.814c0-14.35-8.417-21.374-19.621-21.374h-18.65v43.235h18.65c13.202 0 19.621-9.325 19.621-21.861zm-28.765 13.868v-27.249h6.783c9.446 0 12.473 5.57 12.473 14.289 0 9.57-5.267 12.96-10.778 12.96h-8.478zm65.36-7.629c0-9.99-6.358-16.531-16.228-16.531-9.809 0-16.168 6.54-16.168 16.531 0 9.93 6.359 16.471 16.168 16.471 9.87 0 16.229-6.54 16.229-16.47zm-23.798 0c0-5.027 1.756-10.051 7.57-10.051 5.875 0 7.63 5.024 7.63 10.051 0 4.964-1.755 9.991-7.63 9.991-5.814 0-7.57-5.027-7.57-9.99zm40.345 16.471c3.632 0 7.385-1.694 9.567-5.209h.182v4.362h8.175v-31.308h-8.599v16.41c0 6.36-2 8.963-6.662 8.963-3.998 0-5.511-2.543-5.511-7.691v-17.682h-8.599v19.26c0 7.75 2.3 12.895 11.447 12.895zm33.786-18.891c-5.33.727-10.66 2.421-10.66 9.507 0 6.42 4.725 9.385 10.66 9.385 3.813 0 7.812-1.029 10.535-3.877.061 1.032.303 2.061.606 3.03h8.72c-.787-1.271-1.09-4.12-1.09-6.964v-16.29c0-7.509-7.51-8.9-13.744-8.9-7.028 0-14.231 2.42-14.715 10.474h8.598c.303-3.39 2.422-4.721 5.693-4.721 3.027 0 5.57.545 5.57 4.237 0 3.514-4.907 3.332-10.173 4.119zm10.172 2.724v3.208c0 1.88-.241 7.207-6.964 7.207-2.784 0-5.27-.787-5.27-3.995 0-3.151 2.425-4.06 5.089-4.604 2.663-.484 5.693-.545 7.145-1.816zm23.94-27.918h-8.599v7.086h8.599v-7.086zm0 11.928h-8.599v31.307h8.599v-31.307zm-391.45 81.59H4.385v-11.259h18.223v-3.843H4.385v-10.082h19.713V266.1H0v33.211h24.437v-3.958zm-13.111-31.876l6.036-6.534h-5.017l-4.14 6.534h3.12zm32.402 27.264c-.377 1.786-1.06 3.195-2.045 4.224-.989 1.026-2.327 1.54-4.012 1.54-2.202 0-3.813-.827-4.839-2.482-1.025-1.658-1.537-3.695-1.537-6.12 0-2.407.36-4.432 1.083-6.073 1.117-2.529 2.97-3.793 5.562-3.793 1.9 0 3.279.494 4.14 1.48.857.988 1.405 2.226 1.648 3.719h3.957c-.346-3.239-1.375-5.522-3.087-6.85-1.712-1.325-3.93-1.991-6.658-1.991-3.195 0-5.824 1.184-7.89 3.55-2.064 2.368-3.096 5.674-3.096 9.925 0 3.466.941 6.359 2.825 8.669 1.883 2.313 4.408 3.47 7.573 3.47 2.818 0 5.135-.74 6.94-2.226 1.81-1.483 2.94-3.833 3.393-7.042h-3.957zm17.795-16.345c-3.457 0-6.211 1.203-8.263 3.614-2.047 2.408-3.073 5.647-3.073 9.712 0 3.797.972 6.82 2.919 9.07 1.943 2.25 4.57 3.376 7.879 3.376 3.964 0 6.89-1.271 8.776-3.817 1.887-2.546 2.828-5.767 2.828-9.668 0-4.035-1.069-7.092-3.211-9.17-2.139-2.078-4.758-3.117-7.855-3.117zm5.33 19.207c-.992 2.042-2.822 3.06-5.489 3.06-2.427 0-4.203-.857-5.32-2.575-1.116-1.716-1.677-3.86-1.677-6.433 0-2.68.561-4.967 1.678-6.864 1.116-1.9 2.905-2.848 5.363-2.848 2.775 0 4.725 1.116 5.858 3.342.717 1.416 1.073 3.252 1.073 5.509 0 2.502-.494 4.768-1.486 6.81zm10.282 5.708h4.07V266.1h-4.07v33.21zm22.38.496c1.809-.424 3.329-1.234 4.556-2.441.733-.693 1.396-1.588 1.99-2.68.596-1.09.946-2.082 1.053-2.973h-4.001a7.215 7.215 0 0 1-1.493 2.841c-1.258 1.406-2.94 2.109-5.048 2.109-2.26 0-3.928-.743-5.004-2.233-1.076-1.486-1.65-3.464-1.725-5.925h17.611c0-2.445-.12-4.22-.36-5.337-.272-1.627-.81-3.053-1.617-4.274-.841-1.281-2.062-2.324-3.662-3.13-1.604-.804-3.259-1.208-4.967-1.208-3.386 0-6.127 1.21-8.222 3.639-2.099 2.428-3.148 5.582-3.148 9.473 0 3.947 1.043 7.018 3.124 9.21 2.082 2.192 4.62 3.292 7.617 3.292 1.224 0 2.324-.123 3.295-.363zm-7.586-19.68c1.254-1.349 2.807-2.024 4.664-2.024 2.582 0 4.428.978 5.535 2.939.598 1.056.978 2.464 1.143 4.227H89.934c.074-2.079.737-3.794 1.995-5.142zm49.965 14.052l-9.547-28.079h-6.446v33.21h4.294V279.71c0-.784-.02-2.008-.067-3.672a159.254 159.254 0 0 1-.067-3.72v-1.019l9.57 28.012h4.46l9.482-28.012c0 1.796-.016 3.474-.047 5.041-.029 1.57-.044 2.69-.044 3.37v19.602h4.295V266.1h-6.4l-9.483 28.078zm21.775 5.132h4.136v-24.102h-4.136v24.102zm4.136-33.211h-4.136v4.61h4.136v-4.61zm9.59 20.524c0-1.58.1-2.798.306-3.648.201-.851.642-1.678 1.321-2.475.844-.996 1.823-1.658 2.94-1.991.618-.196 1.408-.293 2.373-.293 1.9 0 3.212.753 3.935 2.26.437.905.655 2.095.655 3.571v15.26h4.137V283.78c0-2.445-.333-4.318-.996-5.63-1.203-2.397-3.527-3.594-6.96-3.594-1.57 0-2.993.31-4.274.925-1.282.618-2.496 1.637-3.639 3.053v-3.437h-3.867v24.212h4.069v-12.684zm38.365 10.742c.733-.693 1.396-1.588 1.99-2.68.596-1.09.946-2.082 1.053-2.973h-4.001a7.215 7.215 0 0 1-1.493 2.841c-1.258 1.406-2.94 2.109-5.048 2.109-2.26 0-3.927-.743-5.004-2.233-1.076-1.486-1.65-3.464-1.725-5.925h17.611c0-2.445-.12-4.22-.36-5.337-.272-1.627-.81-3.053-1.617-4.274-.84-1.281-2.062-2.324-3.662-3.13-1.604-.804-3.259-1.208-4.967-1.208-3.386 0-6.127 1.21-8.222 3.639-2.099 2.428-3.148 5.582-3.148 9.473 0 3.947 1.043 7.018 3.124 9.21 2.082 2.192 4.62 3.292 7.617 3.292 1.224 0 2.324-.123 3.296-.363 1.809-.424 3.329-1.234 4.556-2.441zm-12.142-17.239c1.254-1.349 2.808-2.024 4.664-2.024 2.583 0 4.429.978 5.535 2.939.599 1.056.979 2.464 1.143 4.227h-13.336c.074-2.079.736-3.794 1.994-5.142zm36.363 7.267c-1.015-.662-3.01-1.348-5.989-2.058l-2.74-.656c-1.198-.286-2.106-.615-2.718-.992-1.066-.628-1.597-1.473-1.597-2.522 0-.962.404-1.735 1.214-2.32.81-.585 2-.878 3.574-.878 2.361 0 4.022.532 4.977 1.594.586.75.918 1.584.996 2.495h3.844c.03-1.567-.468-3.026-1.49-4.385-1.635-2.138-4.301-3.211-7.997-3.211-2.825 0-5.074.71-6.746 2.125-1.674 1.419-2.508 3.272-2.508 5.562 0 1.944.887 3.467 2.663 4.567.995.632 2.542 1.207 4.64 1.718l3.286.814c1.762.437 2.943.824 3.538 1.153.935.542 1.402 1.335 1.402 2.374 0 1.372-.585 2.385-1.752 3.04-1.17.656-2.525.986-4.062.986-2.583 0-4.399-.656-5.444-1.968-.572-.723-.919-1.765-1.04-3.12h-3.91c.107 2.411.918 4.435 2.438 6.07 1.516 1.634 4.099 2.455 7.747 2.455 3.387 0 5.909-.787 7.563-2.351 1.658-1.57 2.485-3.43 2.485-5.586 0-2.23-.79-3.867-2.374-4.906zm18.872-3.076h-11.35v4.184h11.35v-4.184zm8.575 14.993h4.543v-29.256h11.191V266.1h-26.925v3.955h11.191v29.256zm33.178-16.144c-.273-1.628-.81-3.054-1.618-4.274-.84-1.282-2.061-2.324-3.662-3.131-1.604-.807-3.259-1.21-4.967-1.21-3.386 0-6.127 1.213-8.222 3.641-2.098 2.425-3.147 5.582-3.147 9.473 0 3.948 1.042 7.018 3.124 9.21 2.081 2.193 4.62 3.29 7.616 3.29 1.224 0 2.324-.121 3.296-.36 1.812-.424 3.329-1.238 4.556-2.445.733-.69 1.396-1.584 1.991-2.677.595-1.093.945-2.085 1.053-2.973h-4.002a7.203 7.203 0 0 1-1.493 2.839c-1.258 1.409-2.94 2.111-5.048 2.111-2.26 0-3.924-.743-5.003-2.233-1.076-1.489-1.652-3.463-1.726-5.928h17.611c0-2.441-.12-4.22-.36-5.333zm-17.163 2.103c.074-2.081.74-3.796 1.994-5.145 1.254-1.348 2.808-2.02 4.664-2.02 2.583 0 4.429.978 5.535 2.938.599 1.053.979 2.462 1.144 4.227h-13.337zm2.552-13.384h3.12l6.037-6.533h-5.017l-4.14 6.533zm23.577 27.425V266.1h-4.069v33.21h4.07zm24.865-4.625c.596-1.093.945-2.085 1.053-2.973h-4.002a7.203 7.203 0 0 1-1.493 2.838c-1.258 1.41-2.939 2.112-5.047 2.112-2.26 0-3.925-.743-5.004-2.233-1.076-1.49-1.651-3.463-1.725-5.928h17.61c0-2.441-.12-4.22-.36-5.333-.272-1.628-.81-3.054-1.617-4.274-.84-1.282-2.061-2.324-3.662-3.131-1.604-.807-3.259-1.21-4.967-1.21-3.386 0-6.127 1.213-8.225 3.64-2.095 2.425-3.144 5.583-3.144 9.474 0 3.948 1.042 7.018 3.124 9.21 2.081 2.193 4.62 3.29 7.616 3.29 1.224 0 2.324-.121 3.296-.36 1.813-.424 3.33-1.238 4.557-2.445.733-.69 1.395-1.584 1.99-2.677zm-14.133-14.56c1.254-1.35 2.807-2.022 4.664-2.022 2.582 0 4.428.979 5.535 2.94.598 1.052.978 2.46 1.143 4.226H318.31c.074-2.081.74-3.796 1.995-5.145zm.558-8.24h3.12l6.037-6.533H325l-4.14 6.533zm29.069 6.151c1.9 0 3.279.494 4.14 1.48.857.988 1.408 2.226 1.647 3.719h3.958c-.35-3.239-1.375-5.522-3.087-6.85-1.712-1.325-3.931-1.991-6.658-1.991-3.195 0-5.825 1.184-7.89 3.55-2.064 2.368-3.096 5.674-3.096 9.925 0 3.466.941 6.359 2.824 8.669 1.883 2.313 4.409 3.47 7.573 3.47 2.818 0 5.135-.74 6.941-2.226 1.81-1.483 2.94-3.833 3.393-7.042h-3.958c-.376 1.786-1.059 3.195-2.044 4.224-.989 1.026-2.327 1.54-4.012 1.54-2.203 0-3.813-.827-4.84-2.482-1.025-1.658-1.536-3.695-1.536-6.12 0-2.407.36-4.432 1.083-6.073 1.116-2.529 2.97-3.793 5.562-3.793zm31.819 18.314c1.886-2.546 2.828-5.767 2.828-9.668 0-4.035-1.07-7.092-3.212-9.17-2.139-2.078-4.759-3.117-7.856-3.117-3.456 0-6.21 1.203-8.262 3.614-2.048 2.408-3.073 5.647-3.073 9.712 0 3.797.972 6.82 2.915 9.07 1.947 2.25 4.574 3.376 7.883 3.376 3.964 0 6.89-1.271 8.777-3.817zm-13.717-2.263c-1.116-1.716-1.678-3.86-1.678-6.433 0-2.68.562-4.967 1.678-6.864 1.116-1.9 2.905-2.848 5.367-2.848 2.77 0 4.721 1.116 5.854 3.342.717 1.416 1.073 3.252 1.073 5.509 0 2.502-.494 4.768-1.486 6.81-.992 2.04-2.821 3.06-5.488 3.06-2.428 0-4.204-.858-5.32-2.576zm45.947-19.533c-1.523 0-2.895.313-4.116.938-1.22.626-2.283 1.584-3.187 2.882-.542-1.056-1.147-1.853-1.81-2.398-1.173-.948-2.727-1.422-4.654-1.422-1.705 0-3.228.457-4.566 1.379-.787.541-1.662 1.409-2.623 2.599v-3.437h-4.026v24.212h4.07v-12.84c0-3.12.628-5.275 1.886-6.465 1.26-1.19 2.66-1.786 4.196-1.786 1.685 0 2.839.565 3.457 1.695.394.753.589 1.95.589 3.594v15.802h4.136v-14.083c0-2.502.578-4.288 1.729-5.357 1.153-1.073 2.528-1.608 4.126-1.608 1.16 0 2.145.303 2.952.905.807.602 1.207 1.712 1.207 3.322v16.82h4.23V283.19c0-2.142-.319-3.843-.95-5.11-1.178-2.352-3.39-3.525-6.646-3.525zM.124 353.548h4.544v-33.21H.124v33.21zm27.19-5.131l-9.547-28.08h-6.446v33.211h4.294V333.95c0-.787-.02-2.011-.067-3.676a159.26 159.26 0 0 1-.067-3.719v-1.015l9.57 28.008h4.46l9.482-28.008c0 1.792-.017 3.473-.047 5.04a208.824 208.824 0 0 0-.044 3.37v19.598h4.294v-33.21h-6.399l-9.483 28.079zm19.369-24.121h11.191v29.253h4.543v-29.253H73.61v-3.958H46.683v3.958zm27.12 18.455h11.349v-4.183h-11.35v4.183zM98.9 320.338zm17.16 20.526c0 2.398-.372 4.305-1.119 5.72-1.382 2.61-3.995 3.915-7.835 3.915-3.209 0-5.485-1.208-6.837-3.619-.915-1.597-1.369-3.601-1.369-6.016v-20.526H94.36v18.653c0 4.083.551 7.224 1.654 9.426 2.01 4.009 5.83 6.013 11.457 6.013 5.626 0 9.453-2.004 11.477-6.013 1.107-2.202 1.658-5.343 1.658-9.426v-18.653h-4.543v20.526zm22.081-12.071c-1.57 0-2.993.306-4.274.924-1.281.619-2.495 1.634-3.638 3.054v-3.437h-3.867v24.212h4.068V340.86c0-1.58.101-2.797.306-3.648.202-.854.643-1.678 1.322-2.475.844-.995 1.822-1.658 2.939-1.99.619-.197 1.409-.297 2.374-.297 1.9 0 3.211.757 3.934 2.263.437.905.656 2.096.656 3.572v15.26h4.136v-15.53c0-2.444-.332-4.32-.995-5.632-1.204-2.394-3.527-3.591-6.96-3.591zm13.391-3.843h4.137v-4.61h-4.137v4.61zm0 28.604h4.137v-24.101h-4.137v24.1zm18.382-4.508l-6.467-19.712h-4.724l8.928 24.212h4.338l9.113-24.212h-4.452l-6.736 19.712zm33.588-11.656c-.273-1.628-.81-3.054-1.618-4.271-.84-1.285-2.061-2.327-3.662-3.134-1.604-.804-3.258-1.207-4.967-1.207-3.386 0-6.127 1.214-8.222 3.638-2.098 2.428-3.147 5.586-3.147 9.473 0 3.948 1.042 7.018 3.124 9.21 2.081 2.193 4.62 3.293 7.617 3.293 1.224 0 2.323-.124 3.295-.363 1.81-.424 3.33-1.235 4.557-2.442.733-.693 1.395-1.587 1.99-2.68.596-1.09.945-2.082 1.053-2.973h-4.002a7.216 7.216 0 0 1-1.493 2.842c-1.257 1.406-2.939 2.108-5.047 2.108-2.26 0-3.928-.743-5.004-2.233-1.076-1.486-1.651-3.463-1.725-5.925h17.61c0-2.444-.12-4.22-.36-5.336zm-17.16 2.101c.073-2.078.736-3.793 1.994-5.142 1.254-1.348 2.808-2.024 4.664-2.024 2.582 0 4.429.982 5.535 2.94.598 1.055.979 2.464 1.143 4.226h-13.336zm32.565-10.699c-1.614 0-3.04.582-4.274 1.752-1.238 1.167-2.011 2.16-2.327 2.973v-4.183h-3.867v24.215h4.069v-13.925c0-1.719.551-3.239 1.65-4.557 1.1-1.318 2.674-1.977 4.725-1.977.242 0 .465 0 .666.027.205.016.427.045.67.088v-4.294c-.438-.046-.747-.065-.929-.092-.181-.027-.31-.027-.383-.027zm21.053 12.846c-1.016-.663-3.01-1.35-5.99-2.058l-2.74-.656c-1.197-.286-2.105-.616-2.717-.992-1.066-.629-1.597-1.473-1.597-2.522 0-.962.403-1.736 1.214-2.32.81-.586 2-.878 3.574-.878 2.36 0 4.022.53 4.977 1.594.585.75.918 1.584.995 2.498h3.844c.03-1.57-.467-3.033-1.49-4.388-1.634-2.14-4.3-3.209-7.997-3.209-2.824 0-5.074.707-6.745 2.122-1.675 1.42-2.509 3.273-2.509 5.562 0 1.944.888 3.468 2.663 4.567.996.632 2.543 1.207 4.641 1.719l3.285.813c1.762.437 2.943.824 3.538 1.154.935.541 1.402 1.335 1.402 2.374 0 1.372-.585 2.384-1.752 3.04-1.17.655-2.525.985-4.062.985-2.583 0-4.398-.656-5.444-1.967-.572-.723-.918-1.765-1.04-3.12v.002h-3.91c.108 2.411.918 4.435 2.438 6.07 1.517 1.634 4.1 2.455 7.748 2.455 3.387 0 5.91-.775 7.563-2.354 1.658-1.57 2.485-3.43 2.485-5.585 0-2.23-.79-3.867-2.374-4.906zm6.428-16.688h4.137v-4.61h-4.137v4.61zm0 28.604h4.137v-24.101h-4.137v24.1zm17.142-3.153c-.74 0-1.268-.083-1.584-.248-.572-.285-.858-.85-.858-1.698v-15.801h3.864v-3.323h-3.864v-6.76h-4.116v6.75h-3.279v3.323h3.28v16.03c0 1.55.339 2.815 1.018 3.787.676.972 1.964 1.46 3.864 1.46.588 0 1.133-.036 1.64-.092a8.758 8.758 0 0 0 1.457-.296v-3.232c-.303.04-.565.073-.79.073-.226.027-.437.027-.632.027zm-6.558-27.83v-.009.01zm31.304 14.838c-.272-1.628-.81-3.053-1.618-4.274-.84-1.281-2.061-2.324-3.662-3.13-1.604-.808-3.258-1.211-4.967-1.211-3.386 0-6.126 1.214-8.222 3.642-2.098 2.424-3.147 5.582-3.147 9.472 0 3.948 1.042 7.018 3.124 9.211s4.62 3.289 7.617 3.289c1.224 0 2.323-.12 3.295-.36 1.81-.424 3.33-1.238 4.557-2.445.733-.69 1.395-1.584 1.99-2.676.596-1.094.945-2.085 1.053-2.973h-4.002a7.203 7.203 0 0 1-1.493 2.838c-1.257 1.409-2.939 2.112-5.047 2.112-2.26 0-3.925-.743-5.004-2.233-1.076-1.486-1.651-3.464-1.725-5.929h17.61c0-2.44-.12-4.22-.36-5.333zm-17.16 2.102c.074-2.082.74-3.793 1.994-5.145 1.254-1.349 2.808-2.021 4.664-2.021 2.583 0 4.429.978 5.535 2.939.599 1.052.978 2.465 1.143 4.227h-13.336zm11.709-19.918h-5.017l-4.14 6.534h3.12l6.037-6.534zm39.577 12.845c-.915-1.13-1.736-1.92-2.455-2.374-1.244-.78-2.791-1.173-4.637-1.173-3.336 0-5.899 1.292-7.691 3.878-1.796 2.582-2.694 5.639-2.694 9.167 0 3.766.986 6.785 2.953 9.052 1.967 2.27 4.294 3.403 6.98 3.403 1.665 0 3.145-.333 4.436-.995 1.291-.663 2.411-1.739 3.356-3.232v3.37h3.662v-33.327h-3.91v12.23zm-1.652 15.973c-1.207 1.62-2.75 2.431-4.623 2.431-2.415 0-4.17-.874-5.263-2.623s-1.641-3.921-1.641-6.51c0-3.047.632-5.35 1.9-6.921 1.267-1.567 2.919-2.35 4.96-2.35 1.83 0 3.366.736 4.61 2.206 1.244 1.469 1.867 3.732 1.867 6.792 0 3.03-.602 5.354-1.81 6.975zm31.41-11.021c-.272-1.628-.81-3.054-1.617-4.271-.84-1.285-2.061-2.327-3.662-3.134-1.604-.804-3.259-1.207-4.967-1.207-3.386 0-6.127 1.214-8.225 3.638-2.095 2.428-3.144 5.586-3.144 9.473 0 3.948 1.042 7.018 3.124 9.21 2.081 2.193 4.62 3.293 7.613 3.293 1.227 0 2.327-.124 3.299-.363 1.81-.424 3.329-1.235 4.556-2.442.734-.693 1.396-1.587 1.991-2.68.595-1.09.945-2.082 1.053-2.973h-4.002a7.216 7.216 0 0 1-1.493 2.842c-1.258 1.406-2.94 2.108-5.048 2.108-2.26 0-3.924-.743-5.003-2.233-1.076-1.486-1.652-3.463-1.725-5.925h17.61c0-2.444-.12-4.22-.36-5.336zm-17.16 2.101c.074-2.078.74-3.793 1.994-5.142 1.255-1.348 2.808-2.024 4.665-2.024 2.582 0 4.428.982 5.535 2.94.598 1.055.978 2.464 1.143 4.226h-13.337zm40.594-19.153h-4.5.001v33.21h21.162v-3.954h-16.663v-29.256zm20.076 4.612h4.136v-4.61h-4.136v4.61zm0 28.604h4.136v-24.101h-4.136v24.1zm9.74-.006h4.07v-33.21h-4.07v33.21zm9.622 0h4.069v-33.21h-4.07v33.21zm24.473-4.772c-1.258 1.406-2.94 2.108-5.048 2.108-2.26 0-3.924-.743-5.004-2.233-1.076-1.486-1.65-3.463-1.725-5.925h17.611c0-2.444-.12-4.22-.36-5.336-.272-1.628-.81-3.054-1.617-4.271-.84-1.285-2.062-2.327-3.662-3.134-1.605-.804-3.26-1.207-4.968-1.207-3.386 0-6.127 1.214-8.225 3.638-2.095 2.428-3.144 5.586-3.144 9.473 0 3.948 1.043 7.018 3.124 9.21 2.082 2.193 4.62 3.293 7.614 3.293 1.227 0 2.327-.124 3.299-.363 1.809-.424 3.329-1.235 4.556-2.442.733-.693 1.396-1.587 1.99-2.68.596-1.09.946-2.082 1.053-2.973H441a7.215 7.215 0 0 1-1.493 2.842zm-9.692-14.427c1.254-1.348 2.808-2.024 4.664-2.024 2.583 0 4.429.982 5.535 2.94.599 1.055.98 2.464 1.144 4.226H427.82c.074-2.078.74-3.793 1.994-5.142z" fill="#040606"/></svg>